<svg xmlns="http://www.w3.org/2000/svg" width="1600" height="640" viewBox="0 0 1600 640" role="img" aria-labelledby="title desc">
  <title id="title">field-propulsion-observatory banner</title>
  <desc id="desc">A restrained repository banner for sensor discipline around anomalous motion claims.</desc>
  <rect width="1600" height="640" fill="#0b0f14"/>
  <rect x="120" y="96" width="1360" height="448" rx="28" fill="#f8fafc"/>
  <rect x="120" y="96" width="1360" height="448" rx="28" fill="none" stroke="#d8dee8" stroke-width="2"/>
  <circle cx="1290" cy="214" r="42" fill="#111827"/>
  <path d="M1242 214h96" stroke="#f8fafc" stroke-width="4" stroke-linecap="round"/>
  <path d="M1290 166v96" stroke="#f8fafc" stroke-width="4" stroke-linecap="round"/>
  <text x="190" y="232" fill="#111827" font-family="Inter, Arial, sans-serif" font-size="66" font-weight="700" letter-spacing="0">field-propulsion-observatory</text>
  <text x="193" y="300" fill="#334155" font-family="Inter, Arial, sans-serif" font-size="31" font-weight="400" letter-spacing="0">Sensor discipline for anomalous motion claims.</text>
  <line x1="194" y1="395" x2="1306" y2="395" stroke="#cbd5e1" stroke-width="2"/>
  <text x="194" y="438" fill="#475569" font-family="Inter, Arial, sans-serif" font-size="24" font-weight="500" letter-spacing="0">Observation</text>
  <text x="383" y="438" fill="#475569" font-family="Inter, Arial, sans-serif" font-size="24" font-weight="500" letter-spacing="0">Metadata</text>
  <text x="558" y="438" fill="#475569" font-family="Inter, Arial, sans-serif" font-size="24" font-weight="500" letter-spacing="0">Geometry</text>
  <text x="733" y="438" fill="#475569" font-family="Inter, Arial, sans-serif" font-size="24" font-weight="500" letter-spacing="0">Trajectory</text>
  <text x="915" y="438" fill="#475569" font-family="Inter, Arial, sans-serif" font-size="24" font-weight="500" letter-spacing="0">Simulation</text>
  <text x="1118" y="438" fill="#475569" font-family="Inter, Arial, sans-serif" font-size="24" font-weight="500" letter-spacing="0">Hypothesis Boundary</text>
  <path d="M343 430l18 8-18 8" fill="none" stroke="#64748b" stroke-width="2" stroke-linecap="round" stroke-linejoin="round"/>
  <path d="M518 430l18 8-18 8" fill="none" stroke="#64748b" stroke-width="2" stroke-linecap="round" stroke-linejoin="round"/>
  <path d="M692 430l18 8-18 8" fill="none" stroke="#64748b" stroke-width="2" stroke-linecap="round" stroke-linejoin="round"/>
  <path d="M872 430l18 8-18 8" fill="none" stroke="#64748b" stroke-width="2" stroke-linecap="round" stroke-linejoin="round"/>
  <path d="M1072 430l18 8-18 8" fill="none" stroke="#64748b" stroke-width="2" stroke-linecap="round" stroke-linejoin="round"/>
</svg>
